<?xml version="1.0" encoding="UTF-8"?>
<svg width="31px" height="31px" viewBox="0 0 31 31" version="1.1" xmlns="http://www.w3.org/2000/svg" xmlns:xlink="http://www.w3.org/1999/xlink">
    <!-- Generator: Sketch 46.1 (44463) - http://www.bohemiancoding.com/sketch -->
    <title>logoy</title>
    <desc>Created with Sketch.</desc>
    <defs>
        <circle id="path-1" cx="12.5" cy="12.5" r="12.5"></circle>
    </defs>
    <g id="Page-1" stroke="none" stroke-width="1" fill="none" fill-rule="evenodd">
        <g id="Palette" transform="translate(-12.000000, -11.000000)">
            <g id="UI-Design">
                <g id="Sidebar">
                    <g id="logoy" transform="translate(15.000000, 14.000000)">
                        <mask id="mask-2" fill="white">
                            <use xlink:href="#path-1"></use>
                        </mask>
                        <g id="Oval-2">
                            <circle stroke="#203BA6" stroke-width="3" cx="12.5" cy="12.5" r="14"></circle>
                            <use stroke="#FFFFFF" stroke-width="1" xlink:href="#path-1"></use>
                        </g>
                        <path d="M12,5 L6.9,8.4 L-0.466666667,8.4 C-1.09236413,8.4 -1.67968467,8.48854053 -2.2286464,8.66562613 C-2.777607,8.84270947 -3.25867844,9.10242867 -3.671875,9.4447928 C-4.08507156,9.78715467 -4.40972101,10.2032965 -4.64583333,10.6932297 C-4.88194563,11.1831629 -5,11.7409692 -5,12.3666667 C-5,12.8979189 -4.91441058,13.3848941 -4.74322928,13.8276036 C-4.57204767,14.2703153 -4.33593897,14.6628453 -4.03489595,15.0052072 C-3.73385269,15.3475713 -3.3737868,15.6309024 -2.95468739,15.8552072 C-2.53558707,16.0795143 -2.0840308,16.2388881 -1.6,16.3333333 C-1.5881952,16.36875 -1.5822928,16.625518 -1.5822928,17.1036464 C-1.5822928,17.5817725 -1.585244,18.098262 -1.5911464,18.6531261 C-1.5970488,19.207988 -1.6,19.7156216 -1.6,20.1760417 C-1.6,20.6364606 -1.6,20.8666667 -1.6,20.8666667 C-1.6,21.1736125 -1.4878476,21.4392351 -1.26354053,21.6635417 C-1.03923573,21.8878483 -0.773611867,22 -0.466666667,22 L1.23333333,22 C1.54027853,22 1.8059024,21.8878483 2.0302072,21.6635417 C2.25451427,21.4392351 2.36666667,21.1736125 2.36666667,20.8666667 L2.36666667,16.3333333 L6.9,16.3333333 L12,19.7333333 C12.3069452,19.7333333 12.5725691,19.6211809 12.7968739,19.3968739 C13.0211809,19.1725691 13.1333333,18.9069452 13.1333333,18.6 L13.1333333,6.13333333 C13.1333333,5.82638813 13.0211809,5.56076427 12.7968739,5.33645947 C12.5725691,5.1121524 12.3069452,5 12,5 Z M1.23333333,20.3 C1.23333333,20.4534731 1.17725827,20.5862841 1.0651036,20.6984374 C0.9529512,20.8105909 0.8201404,20.8666667 0.666666667,20.8666667 L0.1,20.8666667 C-0.0534737333,20.8666667 -0.186284533,20.8105909 -0.298436933,20.6984374 C-0.4105916,20.5862841 -0.466666667,20.4534731 -0.466666667,20.3 L-0.466666667,16.3333333 C-0.466666667,16.3333333 -0.218752267,16.3333333 0.277083333,16.3333333 C0.772918933,16.3333333 1.09166667,16.3333333 1.23333333,16.3333333 L1.23333333,20.3 Z M4.06666667,15.2 L-0.466666667,15.2 C-1.0333356,15.2 -1.74166213,15.0406261 -2.59166667,14.7218739 C-3.44167097,14.4031239 -3.86666667,13.6180616 -3.86666667,12.3666667 C-3.86666667,11.1152717 -3.44462217,10.3243071 -2.60052027,9.99375 C-1.7564204,9.66319293 -1.04514267,9.50972147 -0.466666667,9.53333333 L4.06666667,9.53333333 L4.06666667,15.2 Z M6.9,15.2 L5.2,15.2 L5.2,9.53333333 L6.9,9.53333333 C6.9,9.53333333 6.9,9.79895493 6.9,10.3302072 C6.9,10.8614617 6.9,11.4635383 6.9,12.1364595 C6.9,12.8093784 6.9,13.4498228 6.9,14.0578131 C6.9,14.6658011 6.9,15.0465263 6.9,15.2 Z M12,18.6 L8.03333333,15.7666667 L8.03333333,8.96666667 L12,6.13333333 L12,18.6 Z" id="Page-1" fill="#FFFFFF" mask="url(#mask-2)"></path>
                        <path d="M16.3046875,12.5 L28.3046875,12.5" id="Path-3" stroke="#FFFFFF" stroke-linecap="round" mask="url(#mask-2)"></path>
                        <path d="M20.3046875,9.5 L29.8138202,9.5" id="Path-3" stroke="#FFFFFF" stroke-linecap="round" mask="url(#mask-2)"></path>
                        <path d="M18.3046875,15.5 L27.8138202,15.5" id="Path-3" stroke="#FFFFFF" stroke-linecap="round" mask="url(#mask-2)"></path>
                    </g>
                </g>
            </g>
        </g>
    </g>
</svg>