<?xml version="1.0" encoding="UTF-8"?>
<svg width="28px" height="28px" viewBox="0 0 28 28" version="1.1" xmlns="http://www.w3.org/2000/svg" xmlns:xlink="http://www.w3.org/1999/xlink">
    <!-- Generator: Sketch 47.1 (45422) - http://www.bohemiancoding.com/sketch -->
    <title>abstract circle</title>
    <desc>Created with Sketch.</desc>
    <defs>
        <circle id="path-1" cx="9" cy="9" r="9"></circle>
        <circle id="path-3" cx="9" cy="9" r="10"></circle>
    </defs>
    <g id="Page-1" stroke="none" stroke-width="1" fill="none" fill-rule="evenodd">
        <g id="abstract-circle" transform="translate(-1.000000, -1.000000)">
            <rect id="Rectangle-3" x="0" y="0" width="30" height="30"></rect>
            <g id="ring" transform="translate(6.000000, 6.000000)">
                <mask id="mask-2" fill="white">
                    <use xlink:href="#path-1"></use>
                </mask>
                <g id="Oval-2-Copy">
                    <use fill="#203BA6" fill-rule="evenodd" xlink:href="#path-1"></use>
                    <circle stroke="#203BA6" stroke-width="5" cx="9" cy="9" r="11.5"></circle>
                    <circle stroke="#FFFFFF" stroke-width="4" cx="9" cy="9" r="11"></circle>
                    <circle stroke="#203BA6" stroke-width="3" cx="9" cy="9" r="10.5"></circle>
                </g>
                <mask id="mask-4" fill="white">
                    <use xlink:href="#path-3"></use>
                </mask>
                <use id="Oval-2-Copy" fill="#203BA6" xlink:href="#path-3"></use>
                <g id="Group" mask="url(#mask-4)">
                    <g transform="translate(-3.000000, -4.000000)" id="Group-6">
                        <g>
                            <path d="M13.7000122,5 C12.601365,5 11.7000122,5.9014 11.7000122,7 C11.7000122,8.0987 12.601365,9 13.7000122,9 C14.7986594,9 15.7000122,8.0987 15.7000122,7 C15.7000122,5.9014 14.7986594,5 13.7000122,5 Z M13.7000122,6 C14.2582192,6 14.7000122,6.4418 14.7000122,7 C14.7000122,7.5582 14.2582192,8 13.7000122,8 C13.1418051,8 12.7000122,7.5582 12.7000122,7 C12.7000122,6.4418 13.1418051,6 13.7000122,6 Z" id="Shape" fill="#FFFFFF" fill-rule="nonzero"></path>
                            <path d="M12.1538037,4.55199167 C11.9075749,4.5527455 11.6905288,4.71374375 11.6183671,4.94916231 L6.32764518,21.3085482 C6.26209704,21.5004481 6.30504813,21.7127793 6.44002733,21.8641158 C6.57500654,22.0154524 6.78106453,22.0823062 6.97918106,22.0390398 C7.17729758,21.9957735 7.33672414,21.8491021 7.39632296,21.655272 L12.6870449,5.29375139 C12.7450764,5.12210004 12.7167597,4.93299742 12.6109942,4.78587337 C12.5052287,4.63874933 12.334999,4.55166612 12.1538037,4.55199167 L12.1538037,4.55199167 Z" id="Shape" fill="#FFFFFF" transform="translate(9.507059, 13.301991) rotate(-19.000000) translate(-9.507059, -13.301991) "></path>
                            <path d="M20.5043902,11.2501075 C20.4625494,11.2518891 20.421295,11.2651126 20.3827188,11.2891075 L18.7467628,12.2501075 L5.3496477,12.2501075 L3.71369192,11.2950075 C3.53986025,11.193118 3.34301076,11.3186087 3.27399412,11.5753129 C3.20497748,11.8320172 3.28992348,12.1227464 3.46373588,12.2247075 L5.1605275,13.2149075 C5.2001087,13.2380089 5.24228418,13.2498829 5.28484429,13.2499075 L18.8115662,13.2499075 C18.854571,13.2501297 18.8972108,13.2382514 18.9372055,13.2149075 L20.6326744,12.2169075 C20.7862809,12.1298563 20.8752837,11.8923345 20.8436448,11.653891 C20.8120058,11.4154474 20.6688833,11.2451018 20.5043902,11.2501075 L20.5043902,11.2501075 Z" id="Shape" fill="#FFFFFF"></path>
                            <path d="M27.4976197,15.1501939 C27.4023713,15.1493393 27.3088602,15.1757068 27.2280887,15.2261939 C27.2280887,15.2261939 26.8390347,15.4622939 26.3355107,15.6988939 C25.8319867,15.9353939 25.1968077,16.1498939 24.8823857,16.1499939 C24.5697627,16.1501939 24.2508407,15.9736939 23.8433227,15.7261939 C23.4358047,15.4786939 22.9388467,15.1597939 22.2847297,15.1597939 C21.6306977,15.1597939 21.1336857,15.4787939 20.7261357,15.7261939 C20.3185857,15.9736939 19.9998417,16.1499939 19.6870727,16.1499939 C19.3743047,16.1499939 19.0575137,15.9736939 18.6499637,15.7261939 C18.2424137,15.4787939 17.7454017,15.1597939 17.0913697,15.1597939 C16.4373387,15.1597939 15.9403257,15.4787939 15.5327757,15.7261939 C15.1252267,15.9736939 14.8064817,16.1499939 14.4937137,16.1499939 C14.1808777,16.1499939 13.8622007,15.9736939 13.4546517,15.7261939 C13.0471017,15.4787939 12.5501217,15.1597939 11.8960577,15.1597939 C11.2420257,15.1597939 10.7469667,15.4787939 10.3394167,15.7261939 C9.93186667,15.9736939 9.61312267,16.1499939 9.30035467,16.1499939 C8.98758567,16.1499939 8.66884167,15.9736939 8.26129177,15.7261939 C7.85374177,15.4787939 7.35672967,15.1597939 6.70269807,15.1597939 C6.04866647,15.1597939 5.55165427,15.4787939 5.14410427,15.7261939 C4.73655427,15.9736939 4.41781017,16.1499939 4.10504177,16.1499939 C3.79065777,16.1501939 3.15379747,15.9359939 2.64996367,15.7007939 C2.14612987,15.4656939 1.75933867,15.2320939 1.75933867,15.2320939 C1.6063399,15.1343054 1.41235451,15.1271404 1.25255866,15.2133755 C1.0927628,15.2996106 0.992271459,15.4656924 0.990028554,15.6472583 C0.98778565,15.8288242 1.0841437,15.9973377 1.24176057,16.0874939 C1.24176057,16.0874939 1.67127247,16.3471939 2.22808867,16.6070939 C2.78490487,16.8669939 3.45177897,17.1503939 4.10699487,17.1499939 C4.75995497,17.1492939 5.25653627,16.8288939 5.66363557,16.5816939 C6.07118557,16.3341939 6.38992967,16.1597939 6.70269807,16.1597939 C7.01546647,16.1597939 7.33421057,16.3341939 7.74176057,16.5816939 C8.14931057,16.8290939 8.64632267,17.1499939 9.30035467,17.1499939 C9.95438567,17.1499939 10.4494447,16.8290939 10.8569947,16.5816939 C11.2645447,16.3341939 11.5832887,16.1597939 11.8960577,16.1597939 C12.2088937,16.1597939 12.5275697,16.3341939 12.9351197,16.5816939 C13.3426697,16.8290939 13.8396497,17.1499939 14.4937137,17.1499939 C15.1477457,17.1499939 15.6447577,16.8290939 16.0523077,16.5816939 C16.4598577,16.3341939 16.7786017,16.1597939 17.0913697,16.1597939 C17.4041387,16.1597939 17.7228827,16.3341939 18.1304327,16.5816939 C18.5379827,16.8290939 19.0330417,17.1499939 19.6870727,17.1499939 C20.3411047,17.1499939 20.8381167,16.8290939 21.2456667,16.5816939 C21.6532167,16.3341939 21.9719607,16.1597939 22.2847297,16.1597939 C22.5974117,16.1597939 22.9162097,16.3340939 23.3237917,16.5816939 C23.7313737,16.8291939 24.2282087,17.1503939 24.8823857,17.1499939 C25.5385637,17.1497939 26.2046657,16.8645939 26.7612917,16.6031939 C27.3179177,16.3416939 27.7476197,16.0796939 27.7476197,16.0796939 C27.9401111,15.9651096 28.0329099,15.7364876 27.974738,15.5201579 C27.916566,15.3038282 27.7216193,15.1525821 27.4976197,15.1499939 L27.4976197,15.1501939 Z" id="Shape" fill="#FFFFFF"></path>
                            <path d="M27.4976197,18.6777 C27.4023713,18.6768454 27.3088602,18.7032129 27.2280887,18.7537 C27.2280887,18.7537 26.8390347,18.9898 26.3355107,19.2264 C25.8319867,19.4629 25.1968077,19.6774 24.8823857,19.6775 C24.5697627,19.6777 24.2508407,19.5032 23.8433227,19.2557 C23.4358047,19.0082 22.9388467,18.6873 22.2847297,18.6873 C21.6306977,18.6873 21.1336857,19.0063 20.7261357,19.2537 C20.3185857,19.5012 19.9998417,19.6775 19.6870727,19.6775 C19.3743047,19.6775 19.0575137,19.5012 18.6499637,19.2537 C18.2424137,19.0063 17.7454017,18.6873 17.0913697,18.6873 C16.4373387,18.6873 15.9403267,19.0063 15.5327757,19.2537 C15.1252257,19.5012 14.8064817,19.6775 14.4937137,19.6775 C14.1808777,19.6775 13.8622017,19.5012 13.4546517,19.2537 C13.0471007,19.0063 12.5501217,18.6873 11.8960577,18.6873 C11.2420257,18.6873 10.7469667,19.0063 10.3394167,19.2537 C9.93186667,19.5012 9.61312267,19.6775 9.30035467,19.6775 C8.98758567,19.6775 8.66884167,19.5012 8.26129177,19.2537 C7.85374177,19.0063 7.35672967,18.6873 6.70269807,18.6873 C6.04866647,18.6873 5.55165427,19.0063 5.14410427,19.2537 C4.73655427,19.5012 4.41781017,19.6775 4.10504177,19.6775 C3.79065777,19.6777 3.15379747,19.4635 2.64996367,19.2283 C2.14612987,18.9932 1.75933867,18.7596 1.75933867,18.7596 C1.6063399,18.6618115 1.41235451,18.6546465 1.25255866,18.7408816 C1.0927628,18.8271167 0.992271459,18.9931985 0.990028554,19.1747644 C0.98778565,19.3563303 1.0841437,19.5248438 1.24176057,19.615 C1.24176057,19.615 1.67127247,19.8747 2.22808867,20.1346 C2.78490487,20.3945 3.45177897,20.6779 4.10699487,20.6775 C4.75995497,20.6768 5.25653627,20.3564 5.66363557,20.1092 C6.07118557,19.8617 6.38992967,19.6873 6.70269807,19.6873 C7.01546647,19.6873 7.33421057,19.8617 7.74176057,20.1092 C8.14931057,20.3566 8.64632267,20.6775 9.30035467,20.6775 C9.95438567,20.6775 10.4494447,20.3566 10.8569947,20.1092 C11.2645447,19.8617 11.5832887,19.6873 11.8960577,19.6873 C12.2088937,19.6873 12.5275697,19.8617 12.9351197,20.1092 C13.3426697,20.3566 13.8396497,20.6775 14.4937137,20.6775 C15.1477457,20.6775 15.6447577,20.3566 16.0523077,20.1092 C16.4598577,19.8617 16.7786017,19.6873 17.0913697,19.6873 C17.4041387,19.6873 17.7228827,19.8617 18.1304327,20.1092 C18.5379827,20.3566 19.0330417,20.6775 19.6870727,20.6775 C20.3411047,20.6775 20.8381167,20.3566 21.2456667,20.1092 C21.6532167,19.8617 21.9719607,19.6873 22.2847297,19.6873 C22.5974117,19.6873 22.9162097,19.8616 23.3237917,20.1092 C23.7313737,20.3567 24.2282087,20.6779 24.8823857,20.6775 C25.5385637,20.6773 26.2046657,20.3921 26.7612917,20.1307 C27.3179177,19.8692 27.7476197,19.6072 27.7476197,19.6072 C27.9401111,19.4926157 28.0329099,19.2639937 27.974738,19.047664 C27.916566,18.8313343 27.7216193,18.6800882 27.4976197,18.6775 L27.4976197,18.6777 Z" id="Shape" fill="#FFFFFF"></path>
                        </g>
                    </g>
                </g>
            </g>
        </g>
    </g>
</svg>